<mxfile host="app.diagrams.net" modified="2023-11-28T19:53:10.182Z" agent="Mozilla/5.0 (Windows NT 10.0; Win64; x64; rv:120.0) Gecko/20100101 Firefox/120.0" etag="ObHWln1Iml2svY6iKnTT" version="22.1.4" type="github">
  <diagram id="R2lEEEUBdFMjLlhIrx00" name="Page-1">
    <mxGraphModel dx="1434" dy="746" grid="1" gridSize="10" guides="1" tooltips="1" connect="1" arrows="1" fold="1" page="1" pageScale="1" pageWidth="827" pageHeight="1169" math="0" shadow="0" extFonts="Permanent Marker^https://fonts.googleapis.com/css?family=Permanent+Marker">
      <root>
        <mxCell id="0" />
        <mxCell id="1" parent="0" />
        <mxCell id="UU279-Ydd-jQzTCi8QQk-14" value="LEGAL ENTITY" style="swimlane;fontStyle=1;align=center;verticalAlign=top;childLayout=stackLayout;horizontal=1;startSize=26;horizontalStack=0;resizeParent=1;resizeParentMax=0;resizeLast=0;collapsible=1;marginBottom=0;whiteSpace=wrap;html=1;" parent="1" vertex="1">
          <mxGeometry x="40" y="90" width="160" height="110" as="geometry" />
        </mxCell>
        <mxCell id="UU279-Ydd-jQzTCi8QQk-15" value="- ID: Integer{frozen}" style="text;strokeColor=none;fillColor=none;align=left;verticalAlign=top;spacingLeft=4;spacingRight=4;overflow=hidden;rotatable=0;points=[[0,0.5],[1,0.5]];portConstraint=eastwest;whiteSpace=wrap;html=1;" parent="UU279-Ydd-jQzTCi8QQk-14" vertex="1">
          <mxGeometry y="26" width="160" height="26" as="geometry" />
        </mxCell>
        <mxCell id="UU279-Ydd-jQzTCi8QQk-16" value="" style="line;strokeWidth=1;fillColor=none;align=left;verticalAlign=middle;spacingTop=-1;spacingLeft=3;spacingRight=3;rotatable=0;labelPosition=right;points=[];portConstraint=eastwest;strokeColor=inherit;" parent="UU279-Ydd-jQzTCi8QQk-14" vertex="1">
          <mxGeometry y="52" width="160" height="8" as="geometry" />
        </mxCell>
        <mxCell id="UU279-Ydd-jQzTCi8QQk-17" value="&lt;div&gt;+getID&lt;/div&gt;&lt;div&gt;+setID(newID)&lt;/div&gt;&lt;div&gt;...&lt;br&gt;&lt;/div&gt;" style="text;strokeColor=none;fillColor=none;align=left;verticalAlign=top;spacingLeft=4;spacingRight=4;overflow=hidden;rotatable=0;points=[[0,0.5],[1,0.5]];portConstraint=eastwest;whiteSpace=wrap;html=1;" parent="UU279-Ydd-jQzTCi8QQk-14" vertex="1">
          <mxGeometry y="60" width="160" height="50" as="geometry" />
        </mxCell>
        <mxCell id="UU279-Ydd-jQzTCi8QQk-18" value="CITY" style="swimlane;fontStyle=1;align=center;verticalAlign=top;childLayout=stackLayout;horizontal=1;startSize=26;horizontalStack=0;resizeParent=1;resizeParentMax=0;resizeLast=0;collapsible=1;marginBottom=0;whiteSpace=wrap;html=1;" parent="1" vertex="1">
          <mxGeometry x="420" y="90" width="200" height="190" as="geometry" />
        </mxCell>
        <mxCell id="UU279-Ydd-jQzTCi8QQk-19" value="&lt;div&gt;- POSTAL CODE: Integer{frozen}&lt;/div&gt;&lt;div&gt;- Name: String&lt;/div&gt;&lt;div&gt;- Mayor: String&lt;/div&gt;&lt;div&gt;- Population: Integer&lt;/div&gt;&lt;div&gt;- Province: String&lt;br&gt;&lt;/div&gt;" style="text;strokeColor=none;fillColor=none;align=left;verticalAlign=top;spacingLeft=4;spacingRight=4;overflow=hidden;rotatable=0;points=[[0,0.5],[1,0.5]];portConstraint=eastwest;whiteSpace=wrap;html=1;" parent="UU279-Ydd-jQzTCi8QQk-18" vertex="1">
          <mxGeometry y="26" width="200" height="84" as="geometry" />
        </mxCell>
        <mxCell id="UU279-Ydd-jQzTCi8QQk-20" value="" style="line;strokeWidth=1;fillColor=none;align=left;verticalAlign=middle;spacingTop=-1;spacingLeft=3;spacingRight=3;rotatable=0;labelPosition=right;points=[];portConstraint=eastwest;strokeColor=inherit;" parent="UU279-Ydd-jQzTCi8QQk-18" vertex="1">
          <mxGeometry y="110" width="200" height="8" as="geometry" />
        </mxCell>
        <mxCell id="UU279-Ydd-jQzTCi8QQk-21" value="&lt;div&gt;+ getPostalCode&lt;/div&gt;&lt;div&gt;+ setPostalCode(newPostalCode)&lt;/div&gt;&lt;div&gt;+ getMayor&lt;/div&gt;&lt;div&gt;+ getPopulation&lt;br&gt;&lt;/div&gt;" style="text;strokeColor=none;fillColor=none;align=left;verticalAlign=top;spacingLeft=4;spacingRight=4;overflow=hidden;rotatable=0;points=[[0,0.5],[1,0.5]];portConstraint=eastwest;whiteSpace=wrap;html=1;" parent="UU279-Ydd-jQzTCi8QQk-18" vertex="1">
          <mxGeometry y="118" width="200" height="72" as="geometry" />
        </mxCell>
        <mxCell id="UU279-Ydd-jQzTCi8QQk-33" style="edgeStyle=orthogonalEdgeStyle;rounded=0;orthogonalLoop=1;jettySize=auto;html=1;exitX=0;exitY=0.5;exitDx=0;exitDy=0;entryX=0.5;entryY=0;entryDx=0;entryDy=0;endArrow=none;endFill=0;" parent="1" source="UU279-Ydd-jQzTCi8QQk-22" target="UU279-Ydd-jQzTCi8QQk-27" edge="1">
          <mxGeometry relative="1" as="geometry" />
        </mxCell>
        <mxCell id="UU279-Ydd-jQzTCi8QQk-22" value="" style="triangle;whiteSpace=wrap;html=1;direction=north;fillColor=#000000;" parent="1" vertex="1">
          <mxGeometry x="100" y="200" width="40" height="44" as="geometry" />
        </mxCell>
        <mxCell id="UU279-Ydd-jQzTCi8QQk-23" value="INDIVIDUAL" style="swimlane;fontStyle=1;align=center;verticalAlign=top;childLayout=stackLayout;horizontal=1;startSize=26;horizontalStack=0;resizeParent=1;resizeParentMax=0;resizeLast=0;collapsible=1;marginBottom=0;whiteSpace=wrap;html=1;" parent="1" vertex="1">
          <mxGeometry x="10" y="480" width="160" height="160" as="geometry" />
        </mxCell>
        <mxCell id="UU279-Ydd-jQzTCi8QQk-24" value="&lt;div&gt;- First_Name: String&lt;/div&gt;&lt;div&gt;- Last_Name: String&lt;/div&gt;&lt;div&gt;- Date_of_Birth_ DateTime&lt;br&gt;&lt;/div&gt;" style="text;strokeColor=none;fillColor=none;align=left;verticalAlign=top;spacingLeft=4;spacingRight=4;overflow=hidden;rotatable=0;points=[[0,0.5],[1,0.5]];portConstraint=eastwest;whiteSpace=wrap;html=1;" parent="UU279-Ydd-jQzTCi8QQk-23" vertex="1">
          <mxGeometry y="26" width="160" height="64" as="geometry" />
        </mxCell>
        <mxCell id="UU279-Ydd-jQzTCi8QQk-25" value="" style="line;strokeWidth=1;fillColor=none;align=left;verticalAlign=middle;spacingTop=-1;spacingLeft=3;spacingRight=3;rotatable=0;labelPosition=right;points=[];portConstraint=eastwest;strokeColor=inherit;" parent="UU279-Ydd-jQzTCi8QQk-23" vertex="1">
          <mxGeometry y="90" width="160" height="8" as="geometry" />
        </mxCell>
        <mxCell id="UU279-Ydd-jQzTCi8QQk-26" value="&lt;div&gt;+ getFirst_Name&lt;/div&gt;&lt;div&gt;+ getLastName&lt;/div&gt;&lt;div&gt;+ getDoB&lt;br&gt;&lt;/div&gt;&lt;div&gt;...&lt;br&gt;&lt;/div&gt;" style="text;strokeColor=none;fillColor=none;align=left;verticalAlign=top;spacingLeft=4;spacingRight=4;overflow=hidden;rotatable=0;points=[[0,0.5],[1,0.5]];portConstraint=eastwest;whiteSpace=wrap;html=1;" parent="UU279-Ydd-jQzTCi8QQk-23" vertex="1">
          <mxGeometry y="98" width="160" height="62" as="geometry" />
        </mxCell>
        <mxCell id="UU279-Ydd-jQzTCi8QQk-27" value="BUSINESS" style="swimlane;fontStyle=1;align=center;verticalAlign=top;childLayout=stackLayout;horizontal=1;startSize=26;horizontalStack=0;resizeParent=1;resizeParentMax=0;resizeLast=0;collapsible=1;marginBottom=0;whiteSpace=wrap;html=1;" parent="1" vertex="1">
          <mxGeometry x="200" y="480" width="220" height="190" as="geometry" />
        </mxCell>
        <mxCell id="UU279-Ydd-jQzTCi8QQk-28" value="&lt;div&gt;- Bussiness_ID: Integer&lt;br&gt;&lt;/div&gt;&lt;div&gt;- Name: String&lt;/div&gt;&lt;div&gt;- Date_of_registration: DateTime&lt;br&gt;&lt;/div&gt;" style="text;strokeColor=none;fillColor=none;align=left;verticalAlign=top;spacingLeft=4;spacingRight=4;overflow=hidden;rotatable=0;points=[[0,0.5],[1,0.5]];portConstraint=eastwest;whiteSpace=wrap;html=1;" parent="UU279-Ydd-jQzTCi8QQk-27" vertex="1">
          <mxGeometry y="26" width="220" height="74" as="geometry" />
        </mxCell>
        <mxCell id="UU279-Ydd-jQzTCi8QQk-29" value="" style="line;strokeWidth=1;fillColor=none;align=left;verticalAlign=middle;spacingTop=-1;spacingLeft=3;spacingRight=3;rotatable=0;labelPosition=right;points=[];portConstraint=eastwest;strokeColor=inherit;" parent="UU279-Ydd-jQzTCi8QQk-27" vertex="1">
          <mxGeometry y="100" width="220" height="8" as="geometry" />
        </mxCell>
        <mxCell id="UU279-Ydd-jQzTCi8QQk-30" value="&lt;div&gt;+ getBussiness_ID&lt;/div&gt;&lt;div&gt;+ setBussiness_ID(newBussines_ID)&lt;/div&gt;&lt;div&gt;+ getName&lt;/div&gt;&lt;div&gt;+ setName(newName)&lt;/div&gt;&lt;div&gt;...&lt;br&gt;&lt;/div&gt;" style="text;strokeColor=none;fillColor=none;align=left;verticalAlign=top;spacingLeft=4;spacingRight=4;overflow=hidden;rotatable=0;points=[[0,0.5],[1,0.5]];portConstraint=eastwest;whiteSpace=wrap;html=1;" parent="UU279-Ydd-jQzTCi8QQk-27" vertex="1">
          <mxGeometry y="108" width="220" height="82" as="geometry" />
        </mxCell>
        <mxCell id="UU279-Ydd-jQzTCi8QQk-32" style="edgeStyle=orthogonalEdgeStyle;rounded=0;orthogonalLoop=1;jettySize=auto;html=1;exitX=0;exitY=0.5;exitDx=0;exitDy=0;entryX=0.456;entryY=-0.012;entryDx=0;entryDy=0;entryPerimeter=0;endArrow=none;endFill=0;" parent="1" source="UU279-Ydd-jQzTCi8QQk-22" target="UU279-Ydd-jQzTCi8QQk-23" edge="1">
          <mxGeometry relative="1" as="geometry" />
        </mxCell>
        <mxCell id="UU279-Ydd-jQzTCi8QQk-35" value="BUILDING PERMIT" style="swimlane;fontStyle=1;align=center;verticalAlign=top;childLayout=stackLayout;horizontal=1;startSize=26;horizontalStack=0;resizeParent=1;resizeParentMax=0;resizeLast=0;collapsible=1;marginBottom=0;whiteSpace=wrap;html=1;" parent="1" vertex="1">
          <mxGeometry x="632" y="483" width="160" height="140" as="geometry" />
        </mxCell>
        <mxCell id="UU279-Ydd-jQzTCi8QQk-36" value="&lt;div&gt;- ID: Integer{frozen}&lt;/div&gt;&lt;div&gt;- Zone: Integer&lt;/div&gt;&lt;div&gt;- Address: String&lt;br&gt;&lt;/div&gt;" style="text;strokeColor=none;fillColor=none;align=left;verticalAlign=top;spacingLeft=4;spacingRight=4;overflow=hidden;rotatable=0;points=[[0,0.5],[1,0.5]];portConstraint=eastwest;whiteSpace=wrap;html=1;" parent="UU279-Ydd-jQzTCi8QQk-35" vertex="1">
          <mxGeometry y="26" width="160" height="54" as="geometry" />
        </mxCell>
        <mxCell id="UU279-Ydd-jQzTCi8QQk-37" value="" style="line;strokeWidth=1;fillColor=none;align=left;verticalAlign=middle;spacingTop=-1;spacingLeft=3;spacingRight=3;rotatable=0;labelPosition=right;points=[];portConstraint=eastwest;strokeColor=inherit;" parent="UU279-Ydd-jQzTCi8QQk-35" vertex="1">
          <mxGeometry y="80" width="160" height="8" as="geometry" />
        </mxCell>
        <mxCell id="UU279-Ydd-jQzTCi8QQk-38" value="&lt;div&gt;+ getID&lt;/div&gt;&lt;div&gt;+ setID(newID)&lt;/div&gt;&lt;div&gt;...&lt;br&gt;&lt;/div&gt;" style="text;strokeColor=none;fillColor=none;align=left;verticalAlign=top;spacingLeft=4;spacingRight=4;overflow=hidden;rotatable=0;points=[[0,0.5],[1,0.5]];portConstraint=eastwest;whiteSpace=wrap;html=1;" parent="UU279-Ydd-jQzTCi8QQk-35" vertex="1">
          <mxGeometry y="88" width="160" height="52" as="geometry" />
        </mxCell>
        <mxCell id="UU279-Ydd-jQzTCi8QQk-45" style="edgeStyle=orthogonalEdgeStyle;rounded=0;orthogonalLoop=1;jettySize=auto;html=1;exitX=0;exitY=0.5;exitDx=0;exitDy=0;endArrow=none;endFill=0;entryX=0.5;entryY=0;entryDx=0;entryDy=0;" parent="1" source="UU279-Ydd-jQzTCi8QQk-43" target="rijw3In9d_G571TNvu_z-28" edge="1">
          <mxGeometry relative="1" as="geometry">
            <mxPoint x="1000" y="650" as="targetPoint" />
          </mxGeometry>
        </mxCell>
        <mxCell id="UU279-Ydd-jQzTCi8QQk-43" value="" style="triangle;whiteSpace=wrap;html=1;direction=north;fillColor=#000000;" parent="1" vertex="1">
          <mxGeometry x="692" y="623" width="40" height="44" as="geometry" />
        </mxCell>
        <mxCell id="PXfGN8QsYFF6VwjY72Rg-6" style="edgeStyle=orthogonalEdgeStyle;rounded=0;orthogonalLoop=1;jettySize=auto;html=1;exitX=0.5;exitY=1;exitDx=0;exitDy=0;entryX=0.5;entryY=0;entryDx=0;entryDy=0;endArrow=none;endFill=0;" parent="1" source="UU279-Ydd-jQzTCi8QQk-46" target="UU279-Ydd-jQzTCi8QQk-35" edge="1">
          <mxGeometry relative="1" as="geometry" />
        </mxCell>
        <mxCell id="UU279-Ydd-jQzTCi8QQk-46" value="LOCAL AUTHORITY SERVICE" style="swimlane;fontStyle=1;align=center;verticalAlign=top;childLayout=stackLayout;horizontal=1;startSize=26;horizontalStack=0;resizeParent=1;resizeParentMax=0;resizeLast=0;collapsible=1;marginBottom=0;whiteSpace=wrap;html=1;" parent="1" vertex="1">
          <mxGeometry x="870" y="90" width="200" height="170" as="geometry" />
        </mxCell>
        <mxCell id="UU279-Ydd-jQzTCi8QQk-47" value="&lt;div&gt;- Responsible: String&lt;/div&gt;&lt;div&gt;- Number Employes: Integer&lt;/div&gt;" style="text;strokeColor=none;fillColor=none;align=left;verticalAlign=top;spacingLeft=4;spacingRight=4;overflow=hidden;rotatable=0;points=[[0,0.5],[1,0.5]];portConstraint=eastwest;whiteSpace=wrap;html=1;" parent="UU279-Ydd-jQzTCi8QQk-46" vertex="1">
          <mxGeometry y="26" width="200" height="84" as="geometry" />
        </mxCell>
        <mxCell id="UU279-Ydd-jQzTCi8QQk-48" value="" style="line;strokeWidth=1;fillColor=none;align=left;verticalAlign=middle;spacingTop=-1;spacingLeft=3;spacingRight=3;rotatable=0;labelPosition=right;points=[];portConstraint=eastwest;strokeColor=inherit;" parent="UU279-Ydd-jQzTCi8QQk-46" vertex="1">
          <mxGeometry y="110" width="200" height="8" as="geometry" />
        </mxCell>
        <mxCell id="UU279-Ydd-jQzTCi8QQk-49" value="&lt;div&gt;+ getResponsible&lt;/div&gt;&lt;div&gt;+ setResponsible&lt;br&gt;&lt;/div&gt;&lt;div&gt;...&lt;br&gt;&lt;/div&gt;" style="text;strokeColor=none;fillColor=none;align=left;verticalAlign=top;spacingLeft=4;spacingRight=4;overflow=hidden;rotatable=0;points=[[0,0.5],[1,0.5]];portConstraint=eastwest;whiteSpace=wrap;html=1;" parent="UU279-Ydd-jQzTCi8QQk-46" vertex="1">
          <mxGeometry y="118" width="200" height="52" as="geometry" />
        </mxCell>
        <mxCell id="UU279-Ydd-jQzTCi8QQk-52" style="rounded=0;orthogonalLoop=1;jettySize=auto;html=1;entryX=1;entryY=0.5;entryDx=0;entryDy=0;endArrow=none;endFill=0;" parent="1" target="UU279-Ydd-jQzTCi8QQk-15" edge="1">
          <mxGeometry relative="1" as="geometry">
            <mxPoint x="460" y="130" as="sourcePoint" />
          </mxGeometry>
        </mxCell>
        <mxCell id="UU279-Ydd-jQzTCi8QQk-51" value="NAME" style="rounded=0;whiteSpace=wrap;html=1;" parent="1" vertex="1">
          <mxGeometry x="620" y="120" width="80" height="26" as="geometry" />
        </mxCell>
        <mxCell id="UU279-Ydd-jQzTCi8QQk-54" style="edgeStyle=orthogonalEdgeStyle;rounded=0;orthogonalLoop=1;jettySize=auto;html=1;exitX=1;exitY=0.5;exitDx=0;exitDy=0;entryX=0.01;entryY=0.202;entryDx=0;entryDy=0;entryPerimeter=0;endArrow=none;endFill=0;" parent="1" source="UU279-Ydd-jQzTCi8QQk-51" target="UU279-Ydd-jQzTCi8QQk-47" edge="1">
          <mxGeometry relative="1" as="geometry" />
        </mxCell>
        <mxCell id="PXfGN8QsYFF6VwjY72Rg-5" style="rounded=0;orthogonalLoop=1;jettySize=auto;html=1;exitX=1;exitY=0.5;exitDx=0;exitDy=0;entryX=0;entryY=0.5;entryDx=0;entryDy=0;endArrow=none;endFill=0;" parent="1" source="UU279-Ydd-jQzTCi8QQk-17" target="UU279-Ydd-jQzTCi8QQk-36" edge="1">
          <mxGeometry relative="1" as="geometry" />
        </mxCell>
        <mxCell id="PXfGN8QsYFF6VwjY72Rg-7" value="{total, disjoint}" style="text;html=1;align=center;verticalAlign=middle;resizable=0;points=[];autosize=1;strokeColor=none;fillColor=none;" parent="1" vertex="1">
          <mxGeometry x="140" y="220" width="100" height="30" as="geometry" />
        </mxCell>
        <mxCell id="PXfGN8QsYFF6VwjY72Rg-8" value="{partial, disjoint}" style="text;html=1;align=center;verticalAlign=middle;resizable=0;points=[];autosize=1;strokeColor=none;fillColor=none;" parent="1" vertex="1">
          <mxGeometry x="712" y="630" width="110" height="30" as="geometry" />
        </mxCell>
        <mxCell id="rijw3In9d_G571TNvu_z-5" style="rounded=0;orthogonalLoop=1;jettySize=auto;html=1;exitX=0.5;exitY=1;exitDx=0;exitDy=0;endArrow=none;endFill=0;dashed=1;" parent="1" source="rijw3In9d_G571TNvu_z-1" edge="1">
          <mxGeometry relative="1" as="geometry">
            <mxPoint x="325" y="130" as="targetPoint" />
          </mxGeometry>
        </mxCell>
        <mxCell id="rijw3In9d_G571TNvu_z-1" value="Resides in/has" style="swimlane;fontStyle=1;align=center;verticalAlign=top;childLayout=stackLayout;horizontal=1;startSize=26;horizontalStack=0;resizeParent=1;resizeParentMax=0;resizeLast=0;collapsible=1;marginBottom=0;whiteSpace=wrap;html=1;" parent="1" vertex="1">
          <mxGeometry x="260" width="130" height="80" as="geometry" />
        </mxCell>
        <mxCell id="rijw3In9d_G571TNvu_z-2" value="- Address: String" style="text;strokeColor=none;fillColor=none;align=left;verticalAlign=top;spacingLeft=4;spacingRight=4;overflow=hidden;rotatable=0;points=[[0,0.5],[1,0.5]];portConstraint=eastwest;whiteSpace=wrap;html=1;" parent="rijw3In9d_G571TNvu_z-1" vertex="1">
          <mxGeometry y="26" width="130" height="26" as="geometry" />
        </mxCell>
        <mxCell id="rijw3In9d_G571TNvu_z-3" value="" style="line;strokeWidth=1;fillColor=none;align=left;verticalAlign=middle;spacingTop=-1;spacingLeft=3;spacingRight=3;rotatable=0;labelPosition=right;points=[];portConstraint=eastwest;strokeColor=inherit;" parent="rijw3In9d_G571TNvu_z-1" vertex="1">
          <mxGeometry y="52" width="130" height="8" as="geometry" />
        </mxCell>
        <mxCell id="rijw3In9d_G571TNvu_z-4" value="..." style="text;strokeColor=none;fillColor=none;align=left;verticalAlign=top;spacingLeft=4;spacingRight=4;overflow=hidden;rotatable=0;points=[[0,0.5],[1,0.5]];portConstraint=eastwest;whiteSpace=wrap;html=1;" parent="rijw3In9d_G571TNvu_z-1" vertex="1">
          <mxGeometry y="60" width="130" height="20" as="geometry" />
        </mxCell>
        <mxCell id="rijw3In9d_G571TNvu_z-6" value="1...*" style="text;html=1;align=center;verticalAlign=middle;resizable=0;points=[];autosize=1;strokeColor=none;fillColor=none;" parent="1" vertex="1">
          <mxGeometry x="200" y="98" width="40" height="30" as="geometry" />
        </mxCell>
        <mxCell id="rijw3In9d_G571TNvu_z-7" value="1" style="text;html=1;align=center;verticalAlign=middle;resizable=0;points=[];autosize=1;strokeColor=none;fillColor=none;" parent="1" vertex="1">
          <mxGeometry x="840" y="135" width="30" height="30" as="geometry" />
        </mxCell>
        <mxCell id="rijw3In9d_G571TNvu_z-8" value="1...*" style="text;html=1;align=center;verticalAlign=middle;resizable=0;points=[];autosize=1;strokeColor=none;fillColor=none;" parent="1" vertex="1">
          <mxGeometry x="970" y="260" width="40" height="30" as="geometry" />
        </mxCell>
        <mxCell id="rijw3In9d_G571TNvu_z-9" value="*" style="text;html=1;align=center;verticalAlign=middle;resizable=0;points=[];autosize=1;strokeColor=none;fillColor=none;" parent="1" vertex="1">
          <mxGeometry x="567" y="760" width="30" height="30" as="geometry" />
        </mxCell>
        <mxCell id="rijw3In9d_G571TNvu_z-10" value="*" style="text;html=1;align=center;verticalAlign=middle;resizable=0;points=[];autosize=1;strokeColor=none;fillColor=none;" parent="1" vertex="1">
          <mxGeometry x="597" y="490" width="30" height="30" as="geometry" />
        </mxCell>
        <mxCell id="rijw3In9d_G571TNvu_z-11" value="*" style="text;html=1;align=center;verticalAlign=middle;resizable=0;points=[];autosize=1;strokeColor=none;fillColor=none;" parent="1" vertex="1">
          <mxGeometry x="707" y="453" width="30" height="30" as="geometry" />
        </mxCell>
        <mxCell id="rijw3In9d_G571TNvu_z-12" value="1" style="text;html=1;align=center;verticalAlign=middle;resizable=0;points=[];autosize=1;strokeColor=none;fillColor=none;" parent="1" vertex="1">
          <mxGeometry x="200" y="160" width="30" height="30" as="geometry" />
        </mxCell>
        <mxCell id="rijw3In9d_G571TNvu_z-13" value="1" style="text;html=1;align=center;verticalAlign=middle;resizable=0;points=[];autosize=1;strokeColor=none;fillColor=none;" parent="1" vertex="1">
          <mxGeometry x="420" y="520" width="30" height="30" as="geometry" />
        </mxCell>
        <mxCell id="rijw3In9d_G571TNvu_z-14" value="1" style="text;html=1;align=center;verticalAlign=middle;resizable=0;points=[];autosize=1;strokeColor=none;fillColor=none;" parent="1" vertex="1">
          <mxGeometry x="390" y="128" width="30" height="30" as="geometry" />
        </mxCell>
        <mxCell id="rijw3In9d_G571TNvu_z-15" value="1" style="text;html=1;align=center;verticalAlign=middle;resizable=0;points=[];autosize=1;strokeColor=none;fillColor=none;" parent="1" vertex="1">
          <mxGeometry x="620" y="146" width="30" height="30" as="geometry" />
        </mxCell>
        <mxCell id="rijw3In9d_G571TNvu_z-16" value="apply for" style="text;html=1;align=center;verticalAlign=middle;resizable=0;points=[];autosize=1;strokeColor=none;fillColor=none;" parent="1" vertex="1">
          <mxGeometry x="390" y="320" width="70" height="30" as="geometry" />
        </mxCell>
        <mxCell id="rijw3In9d_G571TNvu_z-17" value="has/belongs to" style="text;html=1;align=center;verticalAlign=middle;resizable=0;points=[];autosize=1;strokeColor=none;fillColor=none;" parent="1" vertex="1">
          <mxGeometry x="730" y="130" width="110" height="30" as="geometry" />
        </mxCell>
        <mxCell id="rijw3In9d_G571TNvu_z-19" value="issues/is issued by" style="text;html=1;align=center;verticalAlign=middle;resizable=0;points=[];autosize=1;strokeColor=none;fillColor=none;" parent="1" vertex="1">
          <mxGeometry x="840" y="340" width="130" height="30" as="geometry" />
        </mxCell>
        <mxCell id="rijw3In9d_G571TNvu_z-25" style="edgeStyle=none;rounded=0;orthogonalLoop=1;jettySize=auto;html=1;exitX=0.5;exitY=0;exitDx=0;exitDy=0;endArrow=none;endFill=0;dashed=1;" parent="1" source="rijw3In9d_G571TNvu_z-20" edge="1">
          <mxGeometry relative="1" as="geometry">
            <mxPoint x="480" y="730" as="targetPoint" />
          </mxGeometry>
        </mxCell>
        <mxCell id="rijw3In9d_G571TNvu_z-20" value="Owns" style="swimlane;fontStyle=1;align=center;verticalAlign=top;childLayout=stackLayout;horizontal=1;startSize=26;horizontalStack=0;resizeParent=1;resizeParentMax=0;resizeLast=0;collapsible=1;marginBottom=0;whiteSpace=wrap;html=1;" parent="1" vertex="1">
          <mxGeometry x="280" y="760" width="160" height="80" as="geometry" />
        </mxCell>
        <mxCell id="rijw3In9d_G571TNvu_z-21" value="- License_number: Integer" style="text;strokeColor=none;fillColor=none;align=left;verticalAlign=top;spacingLeft=4;spacingRight=4;overflow=hidden;rotatable=0;points=[[0,0.5],[1,0.5]];portConstraint=eastwest;whiteSpace=wrap;html=1;" parent="rijw3In9d_G571TNvu_z-20" vertex="1">
          <mxGeometry y="26" width="160" height="26" as="geometry" />
        </mxCell>
        <mxCell id="rijw3In9d_G571TNvu_z-22" value="" style="line;strokeWidth=1;fillColor=none;align=left;verticalAlign=middle;spacingTop=-1;spacingLeft=3;spacingRight=3;rotatable=0;labelPosition=right;points=[];portConstraint=eastwest;strokeColor=inherit;" parent="rijw3In9d_G571TNvu_z-20" vertex="1">
          <mxGeometry y="52" width="160" height="8" as="geometry" />
        </mxCell>
        <mxCell id="rijw3In9d_G571TNvu_z-23" value="..." style="text;strokeColor=none;fillColor=none;align=left;verticalAlign=top;spacingLeft=4;spacingRight=4;overflow=hidden;rotatable=0;points=[[0,0.5],[1,0.5]];portConstraint=eastwest;whiteSpace=wrap;html=1;" parent="rijw3In9d_G571TNvu_z-20" vertex="1">
          <mxGeometry y="60" width="160" height="20" as="geometry" />
        </mxCell>
        <mxCell id="rijw3In9d_G571TNvu_z-24" style="rounded=0;orthogonalLoop=1;jettySize=auto;html=1;exitX=1;exitY=0.5;exitDx=0;exitDy=0;endArrow=none;endFill=0;entryX=0;entryY=0.5;entryDx=0;entryDy=0;" parent="1" source="UU279-Ydd-jQzTCi8QQk-28" target="rijw3In9d_G571TNvu_z-29" edge="1">
          <mxGeometry relative="1" as="geometry">
            <mxPoint x="840" y="760" as="targetPoint" />
            <Array as="points">
              <mxPoint x="480" y="543" />
              <mxPoint x="480" y="783" />
            </Array>
          </mxGeometry>
        </mxCell>
        <mxCell id="rijw3In9d_G571TNvu_z-28" value="COMMERCIAL BUILDING PERMIT" style="swimlane;fontStyle=1;align=center;verticalAlign=top;childLayout=stackLayout;horizontal=1;startSize=26;horizontalStack=0;resizeParent=1;resizeParentMax=0;resizeLast=0;collapsible=1;marginBottom=0;whiteSpace=wrap;html=1;" parent="1" vertex="1">
          <mxGeometry x="597" y="730" width="230" height="140" as="geometry" />
        </mxCell>
        <mxCell id="rijw3In9d_G571TNvu_z-29" value="&lt;div&gt;- Sector: String&lt;/div&gt;&lt;div&gt;- Safety policy: String&lt;/div&gt;&lt;div&gt;- Parking: Integer&lt;br&gt;&lt;/div&gt;" style="text;strokeColor=none;fillColor=none;align=left;verticalAlign=top;spacingLeft=4;spacingRight=4;overflow=hidden;rotatable=0;points=[[0,0.5],[1,0.5]];portConstraint=eastwest;whiteSpace=wrap;html=1;" parent="rijw3In9d_G571TNvu_z-28" vertex="1">
          <mxGeometry y="26" width="230" height="54" as="geometry" />
        </mxCell>
        <mxCell id="rijw3In9d_G571TNvu_z-30" value="" style="line;strokeWidth=1;fillColor=none;align=left;verticalAlign=middle;spacingTop=-1;spacingLeft=3;spacingRight=3;rotatable=0;labelPosition=right;points=[];portConstraint=eastwest;strokeColor=inherit;" parent="rijw3In9d_G571TNvu_z-28" vertex="1">
          <mxGeometry y="80" width="230" height="8" as="geometry" />
        </mxCell>
        <mxCell id="rijw3In9d_G571TNvu_z-31" value="&lt;div&gt;+ getSector&lt;/div&gt;&lt;div&gt;+ getParking&lt;/div&gt;&lt;div&gt;...&lt;br&gt;&lt;/div&gt;" style="text;strokeColor=none;fillColor=none;align=left;verticalAlign=top;spacingLeft=4;spacingRight=4;overflow=hidden;rotatable=0;points=[[0,0.5],[1,0.5]];portConstraint=eastwest;whiteSpace=wrap;html=1;" parent="rijw3In9d_G571TNvu_z-28" vertex="1">
          <mxGeometry y="88" width="230" height="52" as="geometry" />
        </mxCell>
      </root>
    </mxGraphModel>
  </diagram>
</mxfile>
